REM DIRINDEX 1\5,1\2\6,1\2\7,1\3\8,1\3\9,1\4\10,1\4\11,1\4\12
REM DIRNAME folder01,folder02,folder03,folder04,folder05,folder06,folder07,folder08,folder09,folder10,folder11,folder12
TITLE ""
FILE "EJE_DB3000_5th_5C_19.mp3" MP3
  TRACK 01 AUDIO
    TITLE "0:"
    INDEX 01 00:00:00
  TRACK 02 AUDIO
    TITLE "10:cjc026_10863"
    INDEX 01 00:00:05
  TRACK 03 AUDIO
    TITLE "0:"
    INDEX 01 00:01:09
  TRACK 04 AUDIO
    TITLE "11:cjc026_10864"
    INDEX 01 00:01:36
  TRACK 05 AUDIO
    TITLE "0:"
    INDEX 01 00:02:49
  TRACK 06 AUDIO
    TITLE "12:cjc026_10865"
    INDEX 01 00:03:00
  TRACK 07 AUDIO
    TITLE "0:"
    INDEX 01 00:04:03
  TRACK 08 AUDIO
    TITLE "10:cjc026_10866"
    INDEX 01 00:04:33
  TRACK 09 AUDIO
    TITLE "0:"
    INDEX 01 00:05:26
  TRACK 10 AUDIO
    TITLE "11:cjc026_10867"
    INDEX 01 00:05:54
  TRACK 11 AUDIO
    TITLE "0:"
    INDEX 01 00:06:61
  TRACK 12 AUDIO
    TITLE "12:cjc026_10868"
    INDEX 01 00:07:11
  TRACK 13 AUDIO
    TITLE "0:"
    INDEX 01 00:08:07
  TRACK 14 AUDIO
    TITLE "10:cjc026_10869"
    INDEX 01 00:08:34
  TRACK 15 AUDIO
    TITLE "0:"
    INDEX 01 00:09:28
  TRACK 16 AUDIO
    TITLE "11:cjc026_10870"
    INDEX 01 00:09:55
  TRACK 17 AUDIO
    TITLE "0:"
    INDEX 01 00:10:68
  TRACK 18 AUDIO
    TITLE "12:cjc026_10871"
    INDEX 01 00:11:19
  TRACK 19 AUDIO
    TITLE "0:"
    INDEX 01 00:12:12
  TRACK 20 AUDIO
    TITLE "10:cjc026_10872"
    INDEX 01 00:12:40
  TRACK 21 AUDIO
    TITLE "0:"
    INDEX 01 00:13:33
  TRACK 22 AUDIO
    TITLE "11:cjc026_10873"
    INDEX 01 00:13:59
  TRACK 23 AUDIO
    TITLE "0:"
    INDEX 01 00:14:64
  TRACK 24 AUDIO
    TITLE "12:cjc026_10874"
    INDEX 01 00:15:15
  TRACK 25 AUDIO
    TITLE "0:"
    INDEX 01 00:16:08
  TRACK 26 AUDIO
    TITLE "10:cjc026_10875"
    INDEX 01 00:16:40
  TRACK 27 AUDIO
    TITLE "0:"
    INDEX 01 00:17:35
  TRACK 28 AUDIO
    TITLE "11:cjc026_10876"
    INDEX 01 00:17:59
  TRACK 29 AUDIO
    TITLE "0:"
    INDEX 01 00:18:54
  TRACK 30 AUDIO
    TITLE "12:cjc026_10877"
    INDEX 01 00:19:09
  TRACK 31 AUDIO
    TITLE "0:"
    INDEX 01 00:20:04
  TRACK 32 AUDIO
    TITLE "10:cjc026_10878"
    INDEX 01 00:20:28
  TRACK 33 AUDIO
    TITLE "0:"
    INDEX 01 00:21:27
  TRACK 34 AUDIO
    TITLE "11:cjc026_10879"
    INDEX 01 00:21:55
  TRACK 35 AUDIO
    TITLE "0:"
    INDEX 01 00:22:56
  TRACK 36 AUDIO
    TITLE "12:cjc026_10880"
    INDEX 01 00:23:08
  TRACK 37 AUDIO
    TITLE "0:"
    INDEX 01 00:24:06
  TRACK 38 AUDIO
    TITLE "10:cjc026_10881"
    INDEX 01 00:24:33
  TRACK 39 AUDIO
    TITLE "0:"
    INDEX 01 00:25:54
  TRACK 40 AUDIO
    TITLE "11:cjc026_10882"
    INDEX 01 00:26:07
  TRACK 41 AUDIO
    TITLE "0:"
    INDEX 01 00:27:04
  TRACK 42 AUDIO
    TITLE "12:cjc026_10883"
    INDEX 01 00:27:30
  TRACK 43 AUDIO
    TITLE "0:"
    INDEX 01 00:28:49
  TRACK 44 AUDIO
    TITLE "10:cjc026_10884"
    INDEX 01 00:29:01
  TRACK 45 AUDIO
    TITLE "0:"
    INDEX 01 00:30:01
  TRACK 46 AUDIO
    TITLE "11:cjc026_10885"
    INDEX 01 00:30:26
  TRACK 47 AUDIO
    TITLE "0:"
    INDEX 01 00:31:29
  TRACK 48 AUDIO
    TITLE "12:cjc026_10886"
    INDEX 01 00:31:57
  TRACK 49 AUDIO
    TITLE "0:"
    INDEX 01 00:32:56
  TRACK 50 AUDIO
    TITLE "10:cjc026_10887"
    INDEX 01 00:33:09
  TRACK 51 AUDIO
    TITLE "0:"
    INDEX 01 00:33:68
  TRACK 52 AUDIO
    TITLE "11:cjc026_10888"
    INDEX 01 00:34:20
  TRACK 53 AUDIO
    TITLE "0:"
    INDEX 01 00:35:14
  TRACK 54 AUDIO
    TITLE "12:cjc026_10889"
    INDEX 01 00:35:41
  TRACK 55 AUDIO
    TITLE "0:"
    INDEX 01 00:36:25
  TRACK 56 AUDIO
    TITLE "10:cjc026_10890"
    INDEX 01 00:36:54
  TRACK 57 AUDIO
    TITLE "0:"
    INDEX 01 00:37:56
  TRACK 58 AUDIO
    TITLE "11:cjc026_10891"
    INDEX 01 00:38:08
  TRACK 59 AUDIO
    TITLE "0:"
    INDEX 01 00:38:69
  TRACK 60 AUDIO
    TITLE "12:cjc026_10892"
    INDEX 01 00:39:19
  TRACK 61 AUDIO
    TITLE "0:"
    INDEX 01 00:40:21
  TRACK 62 AUDIO
    TITLE "10:cjc026_10893"
    INDEX 01 00:40:48
  TRACK 63 AUDIO
    TITLE "0:"
    INDEX 01 00:41:44
  TRACK 64 AUDIO
    TITLE "11:cjc026_10894"
    INDEX 01 00:41:69
  TRACK 65 AUDIO
    TITLE "0:"
    INDEX 01 00:42:74
  TRACK 66 AUDIO
    TITLE "12:cjc026_10895"
    INDEX 01 00:43:27
  TRACK 67 AUDIO
    TITLE "0:"
    INDEX 01 00:44:22
  TRACK 68 AUDIO
    TITLE "10:cjc026_10896"
    INDEX 01 00:44:48
  TRACK 69 AUDIO
    TITLE "0:"
    INDEX 01 00:45:39
  TRACK 70 AUDIO
    TITLE "11:cjc026_10897"
    INDEX 01 00:45:63
  TRACK 71 AUDIO
    TITLE "0:"
    INDEX 01 00:46:66
  TRACK 72 AUDIO
    TITLE "12:cjc026_10898"
    INDEX 01 00:47:19
  TRACK 73 AUDIO
    TITLE "0:"
    INDEX 01 00:48:10
  TRACK 74 AUDIO
    TITLE "10:cjc026_10899"
    INDEX 01 00:48:34
  TRACK 75 AUDIO
    TITLE "0:"
    INDEX 01 00:49:35
  TRACK 76 AUDIO
    TITLE "11:cjc026_10900"
    INDEX 01 00:49:63
  TRACK 77 AUDIO
    TITLE "0:"
    INDEX 01 00:50:60
  TRACK 78 AUDIO
    TITLE "12:cjc026_10901"
    INDEX 01 00:51:11
  TRACK 79 AUDIO
    TITLE "0:"
    INDEX 01 00:52:12
